<svg width="28" height="28" viewBox="0 0 28 28" fill="none" xmlns="http://www.w3.org/2000/svg">
<path d="M14 27.125C21.2487 27.125 27.125 21.2487 27.125 14C27.125 6.75126 21.2487 0.875 14 0.875C6.75126 0.875 0.875 6.75126 0.875 14C0.875 21.2487 6.75126 27.125 14 27.125Z" fill="#DF4E50"/>
<path d="M8.96875 12.9502C10.1769 12.9502 11.1562 11.9708 11.1562 10.7627C11.1562 9.55457 10.1769 8.5752 8.96875 8.5752C7.76063 8.5752 6.78125 9.55457 6.78125 10.7627C6.78125 11.9708 7.76063 12.9502 8.96875 12.9502Z" fill="#B6160D"/>
<path d="M19.0312 12.9502C20.2394 12.9502 21.2188 11.9708 21.2188 10.7627C21.2188 9.55457 20.2394 8.5752 19.0312 8.5752C17.8231 8.5752 16.8438 9.55457 16.8438 10.7627C16.8438 11.9708 17.8231 12.9502 19.0312 12.9502Z" fill="#B6160D"/>
<path d="M8.48749 20.0375C12.0312 17.5437 15.9687 17.5875 19.5125 20.0375C19.95 20.3437 20.3 19.8187 20.0375 19.3375C18.9437 17.5875 16.8 15.9688 14 15.9688C11.2 15.9688 9.05624 17.5437 7.96249 19.3375C7.69999 19.8187 8.04999 20.3437 8.48749 20.0375Z" fill="#B6160D"/>
</svg>
