<svg width="28" height="28" viewBox="0 0 28 28" fill="none" xmlns="http://www.w3.org/2000/svg">
<path d="M14 27.125C21.2487 27.125 27.125 21.2487 27.125 14C27.125 6.75126 21.2487 0.875 14 0.875C6.75126 0.875 0.875 6.75126 0.875 14C0.875 21.2487 6.75126 27.125 14 27.125Z" fill="#F6CA4E"/>
<path d="M17.5 21H10.5C9.84376 21 9.84376 19.25 10.5 19.25H17.5C18.1563 19.25 18.1563 21 17.5 21ZM11.8563 14H4.85626C4.20001 14 4.20001 12.25 4.85626 12.25H11.8563C12.5125 12.25 12.5125 14 11.8563 14ZM23.1438 14H16.1438C15.4875 14 15.4875 12.25 16.1438 12.25H23.1438C23.8 12.25 23.8 14 23.1438 14Z" fill="#DD9D37"/>
</svg>
