<svg width="28" height="28" viewBox="0 0 28 28" fill="none" xmlns="http://www.w3.org/2000/svg">
<path d="M27.125 14C27.125 21.2625 21.2625 27.125 14 27.125C6.7375 27.125 0.875 21.2625 0.875 14C0.875 6.7375 6.7375 0.875 14 0.875C21.2625 0.875 27.125 6.7375 27.125 14Z" fill="#77CA90"/>
<path d="M21.4375 16.6252C21.4375 16.2752 21.2188 15.8377 20.65 15.7064C19.1188 15.4002 16.8875 15.1377 14 15.1377C11.1125 15.1377 8.88125 15.4439 7.35 15.7064C6.78125 15.8377 6.5625 16.2752 6.5625 16.6252C6.5625 19.8189 9.0125 23.0127 14 23.0127C18.9875 23.0127 21.4375 19.8189 21.4375 16.6252Z" fill="#4BA252"/>
<path d="M12.4687 11.7687C11.6375 9.5374 10.4125 8.3999 9.1875 8.3999C7.9625 8.3999 6.7375 9.5374 5.90625 11.7687C5.81875 11.9874 6.25625 12.3812 6.475 12.1624C7.2625 11.3312 8.225 10.9812 9.1875 10.9812C10.15 10.9812 11.1125 11.3312 11.9 12.1624C12.1625 12.3812 12.5562 11.9874 12.4687 11.7687Z" fill="#4BA252"/>
<path d="M22.05 11.7687C21.2188 9.5374 19.9938 8.3999 18.7688 8.3999C17.5438 8.3999 16.3188 9.5374 15.4875 11.7687C15.4 11.9874 15.8375 12.3812 16.0563 12.1624C16.8438 11.3312 17.8063 10.9812 18.7688 10.9812C19.775 10.9812 20.6938 11.3312 21.4813 12.1624C21.7 12.3812 22.1375 11.9874 22.05 11.7687Z" fill="#4BA252"/>
<path d="M19.5563 16.7563C18.5938 16.5813 16.5813 16.3188 14 16.3188C11.4188 16.3188 9.40626 16.5813 8.44376 16.7563C7.87501 16.8438 7.83126 17.0626 7.87501 17.4126C7.91876 17.5876 7.91876 17.8501 8.00626 18.1126C8.05001 18.3751 8.13751 18.5063 8.57501 18.4626C9.40626 18.3751 18.6375 18.3751 19.4688 18.4626C19.9063 18.5063 19.95 18.3751 20.0375 18.1126C20.0813 17.8501 20.125 17.6313 20.1688 17.4126C20.1688 17.0626 20.125 16.8438 19.5563 16.7563" fill="white"/>
<path d="M19.5563 16.7563C18.5938 16.5813 16.5813 16.3188 14 16.3188C11.4188 16.3188 9.40626 16.5813 8.44376 16.7563C7.87501 16.8438 7.83126 17.0626 7.87501 17.4126C7.91876 17.5876 7.91876 17.8501 8.00626 18.1126C8.05001 18.3751 8.13751 18.4626 8.57501 18.4626H19.4688C19.9063 18.4626 19.95 18.3751 20.0375 18.1126C20.0813 17.8501 20.125 17.6313 20.1688 17.4126C20.1688 17.0626 20.125 16.8438 19.5563 16.7563" fill="white"/>
</svg>
