<svg width="28" height="28" viewBox="0 0 28 28" fill="none" xmlns="http://www.w3.org/2000/svg">
<path d="M14 27.125C21.2487 27.125 27.125 21.2487 27.125 14C27.125 6.75126 21.2487 0.875 14 0.875C6.75126 0.875 0.875 6.75126 0.875 14C0.875 21.2487 6.75126 27.125 14 27.125Z" fill="#F6CA4E"/>
<path d="M17.5 21H10.5C9.8437 21 9.8437 19.25 10.5 19.25H17.5C18.1562 19.25 18.1562 21 17.5 21ZM11.8562 14H4.8562C4.19995 14 4.19995 12.25 4.8562 12.25H11.8562C12.5125 12.25 12.5125 14 11.8562 14ZM23.1437 14H16.1437C15.4875 14 15.4875 12.25 16.1437 12.25H23.1437C23.8 12.25 23.8 14 23.1437 14Z" fill="#DD9D37"/>
</svg>
