<svg width="221" height="28" viewBox="0 0 221 28" fill="none" xmlns="http://www.w3.org/2000/svg">
<path d="M0.875 0.453125V23H5.59375V15.8906H9.8125C14.5625 15.8906 17.8594 12.7969 17.8594 8.17188C17.8594 3.53125 14.6719 0.453125 10.0469 0.453125H0.875ZM5.59375 4.1875H8.79688C11.5 4.1875 13.0625 5.625 13.0625 8.1875C13.0625 10.7656 11.4844 12.2031 8.78125 12.2031H5.59375V4.1875ZM40.25 23V0.453125H35.5312V9.60938H25.375V0.453125H20.6562V23H25.375V13.5H35.5312V23H40.25ZM43.5156 23H60.9219V19.0938H49.2031V18.9844L60.6094 3.51562V0.453125H43.7812V4.34375H54.9688V4.46875L43.5156 19.9219V23ZM76.9062 27.8438V0.453125H72.6406V27.8438H76.9062Z" fill="#D47E36"/>
<path d="M89.0938 0.453125V23H93.8125V15.8906H98.0312C102.781 15.8906 106.078 12.7969 106.078 8.17188C106.078 3.53125 102.891 0.453125 98.2656 0.453125H89.0938ZM93.8125 4.1875H97.0156C99.7188 4.1875 101.281 5.625 101.281 8.1875C101.281 10.7656 99.7031 12.2031 97 12.2031H93.8125V4.1875ZM108.484 23H113.047V13.6406C113.047 11.2812 114.359 9.90625 116.609 9.90625C117.266 9.90625 117.891 10.0156 118.266 10.1719V6.15625C117.953 6.0625 117.5 5.98438 116.969 5.98438C115 5.98438 113.578 7.14062 112.984 9.26562H112.891V6.25H108.484V23ZM127.266 23.3594C132.328 23.3594 135.562 20.125 135.562 14.6094C135.562 9.17188 132.281 5.89062 127.266 5.89062C122.25 5.89062 118.969 9.1875 118.969 14.6094C118.969 20.1094 122.203 23.3594 127.266 23.3594ZM127.266 19.875C125.016 19.875 123.594 17.9844 123.594 14.625C123.594 11.2969 125.047 9.375 127.266 9.375C129.484 9.375 130.922 11.2969 130.922 14.625C130.922 17.9844 129.5 19.875 127.266 19.875ZM137.453 16.5625C137.594 20.8125 141.172 23.3906 146.547 23.3906C152.188 23.3906 155.641 20.5938 155.641 16.1875C155.641 12.7656 153.562 10.8438 148.797 9.89062L146.406 9.40625C143.75 8.875 142.656 8.01562 142.656 6.625C142.656 4.96875 144.219 3.875 146.547 3.875C148.922 3.875 150.594 5.03125 150.75 6.95312H155.203C155.125 2.8125 151.812 0.0625 146.547 0.0625C141.531 0.0625 137.938 2.79688 137.938 6.92188C137.938 10.2812 140.141 12.4375 144.641 13.3281L147.016 13.7969C149.844 14.375 150.906 15.2188 150.906 16.7031C150.906 18.3594 149.188 19.5781 146.672 19.5781C144.109 19.5781 142.203 18.4531 141.906 16.5625H137.453ZM173.359 12.4844C173.156 8.6875 170.281 5.89062 165.75 5.89062C160.734 5.89062 157.531 9.23438 157.531 14.6094C157.531 20.0781 160.734 23.3594 165.781 23.3594C170.188 23.3594 173.141 20.8125 173.375 16.8594H169.125C168.844 18.6875 167.656 19.7812 165.828 19.7812C163.562 19.7812 162.156 17.9062 162.156 14.6094C162.156 11.375 163.562 9.46875 165.812 9.46875C167.688 9.46875 168.859 10.7188 169.125 12.4844H173.359ZM183.266 23.3594C188.328 23.3594 191.562 20.125 191.562 14.6094C191.562 9.17188 188.281 5.89062 183.266 5.89062C178.25 5.89062 174.969 9.1875 174.969 14.6094C174.969 20.1094 178.203 23.3594 183.266 23.3594ZM183.266 19.875C181.016 19.875 179.594 17.9844 179.594 14.625C179.594 11.2969 181.047 9.375 183.266 9.375C185.484 9.375 186.922 11.2969 186.922 14.625C186.922 17.9844 185.5 19.875 183.266 19.875ZM193.922 23H198.484V13.6406C198.484 11.2812 199.797 9.90625 202.047 9.90625C202.703 9.90625 203.328 10.0156 203.703 10.1719V6.15625C203.391 6.0625 202.938 5.98438 202.406 5.98438C200.438 5.98438 199.016 7.14062 198.422 9.26562H198.328V6.25H193.922V23ZM212.531 9.26562C214.562 9.26562 215.953 10.7344 216.047 12.875H208.938C209.094 10.7812 210.531 9.26562 212.531 9.26562ZM216.109 17.875C215.688 19.1562 214.406 19.9844 212.734 19.9844C210.406 19.9844 208.891 18.3438 208.891 15.9531V15.6719H220.438V14.2812C220.438 9.1875 217.359 5.89062 212.484 5.89062C207.531 5.89062 204.406 9.35938 204.406 14.7031C204.406 20.0625 207.5 23.3594 212.656 23.3594C216.797 23.3594 219.797 21.1562 220.297 17.875H216.109Z" fill="#999999"/>
</svg>
